<svg width="30" height="30" viewBox="0 0 30 30" fill="none" xmlns="http://www.w3.org/2000/svg">
<mask id="path-1-outside-1_5535_6104" maskUnits="userSpaceOnUse" x="-0.715576" y="-0.715668" width="31" height="31" fill="black">
<rect fill="white" x="-0.715576" y="-0.715668" width="31" height="31"/>
<path d="M0.668431 0.284513C1.10841 0.292999 2.26346 0.608221 2.7114 0.736662C6.74307 1.89277 10.8203 4.40205 13.7368 7.38803C15.8141 9.51481 17.3003 12.1293 17.5122 15.1253C17.5558 15.7421 17.5399 16.4075 17.5268 17.0296C18.512 16.249 19.6424 14.1471 19.9634 12.8949C20.628 10.3006 21.1015 8.76998 23.3969 7.18881C22.3398 6.61312 21.4317 6.04554 20.2231 6.34994C18.7673 6.7033 17.9888 7.93453 17.4516 9.2269C17.3008 9.58977 16.6107 9.55683 16.604 9.15072C16.592 8.42664 17.1704 7.5017 17.5815 6.95834C18.8043 5.34219 20.9206 4.8228 22.7505 5.68881C23.1832 5.88539 23.9791 6.42784 24.4038 6.42611C25.0722 6.4234 25.9423 6.31075 26.6274 6.24447C27.3937 6.17035 28.1561 6.11595 28.9175 6.05014C29.1876 6.02679 29.2329 6.24798 28.9751 6.33139C27.5215 6.80037 25.7041 7.13516 24.354 7.8226C21.0525 9.50376 21.5363 12.4635 20.0815 15.2503C19.6227 16.1228 19.0341 16.9211 18.3374 17.6185C18.0351 17.9221 17.7142 18.1979 17.4106 18.5052C17.2845 19.161 17.168 19.8796 16.9868 20.5179C16.2132 23.2424 15.0482 25.3405 12.9458 27.2367C11.9544 28.098 10.834 28.7609 9.56101 29.1058C9.30458 29.1811 8.42034 29.4478 8.22898 29.1527C7.54361 28.0886 8.01303 26.0895 8.45945 25.098C9.5743 22.6223 11.6054 21.1148 13.8159 19.7093C14.5518 19.2414 15.8938 18.4893 16.4712 17.8988C16.5373 17.5031 16.5318 17.0793 16.5503 16.6781C16.6587 14.3237 16.0215 12.1432 14.7153 10.183C12.047 6.17865 6.00053 2.36304 1.3237 1.43588C1.38281 2.40628 1.6999 3.56013 2.0112 4.47494C3.43614 8.66227 6.70711 12.6657 10.5053 14.933C11.1797 15.3377 11.8811 15.6961 12.604 16.0062C12.9553 16.1572 13.3128 16.2795 13.6587 16.43C13.8433 16.5104 14.0982 16.7301 14.0337 16.9505C14.0201 17.0439 13.8289 17.2546 13.7495 17.2816C13.2593 17.448 12.1785 16.8972 11.7456 16.7015C7.71563 14.8797 4.32013 11.47 2.26413 7.57943C1.27821 5.71374 0.45718 3.51352 0.299291 1.39584C0.282689 1.12652 0.264481 0.754308 0.338353 0.496427C0.376749 0.362964 0.462279 0.343186 0.572728 0.287443C0.604492 0.285169 0.636598 0.283824 0.668431 0.284513ZM16.1645 19.3675C13.3393 21.2181 9.78944 23.0002 8.97312 26.639C8.8975 26.9763 8.78799 27.9533 8.96628 28.2523C11.4086 27.6373 13.3062 25.8666 14.5747 23.7455C15.2731 22.5712 15.7956 21.3008 16.1255 19.9749C16.1551 19.8539 16.2586 19.4885 16.2134 19.3841L16.1645 19.3675Z"/>
</mask>
<path d="M0.668431 0.284513C1.10841 0.292999 2.26346 0.608221 2.7114 0.736662C6.74307 1.89277 10.8203 4.40205 13.7368 7.38803C15.8141 9.51481 17.3003 12.1293 17.5122 15.1253C17.5558 15.7421 17.5399 16.4075 17.5268 17.0296C18.512 16.249 19.6424 14.1471 19.9634 12.8949C20.628 10.3006 21.1015 8.76998 23.3969 7.18881C22.3398 6.61312 21.4317 6.04554 20.2231 6.34994C18.7673 6.7033 17.9888 7.93453 17.4516 9.2269C17.3008 9.58977 16.6107 9.55683 16.604 9.15072C16.592 8.42664 17.1704 7.5017 17.5815 6.95834C18.8043 5.34219 20.9206 4.8228 22.7505 5.68881C23.1832 5.88539 23.9791 6.42784 24.4038 6.42611C25.0722 6.4234 25.9423 6.31075 26.6274 6.24447C27.3937 6.17035 28.1561 6.11595 28.9175 6.05014C29.1876 6.02679 29.2329 6.24798 28.9751 6.33139C27.5215 6.80037 25.7041 7.13516 24.354 7.8226C21.0525 9.50376 21.5363 12.4635 20.0815 15.2503C19.6227 16.1228 19.0341 16.9211 18.3374 17.6185C18.0351 17.9221 17.7142 18.1979 17.4106 18.5052C17.2845 19.161 17.168 19.8796 16.9868 20.5179C16.2132 23.2424 15.0482 25.3405 12.9458 27.2367C11.9544 28.098 10.834 28.7609 9.56101 29.1058C9.30458 29.1811 8.42034 29.4478 8.22898 29.1527C7.54361 28.0886 8.01303 26.0895 8.45945 25.098C9.5743 22.6223 11.6054 21.1148 13.8159 19.7093C14.5518 19.2414 15.8938 18.4893 16.4712 17.8988C16.5373 17.5031 16.5318 17.0793 16.5503 16.6781C16.6587 14.3237 16.0215 12.1432 14.7153 10.183C12.047 6.17865 6.00053 2.36304 1.3237 1.43588C1.38281 2.40628 1.6999 3.56013 2.0112 4.47494C3.43614 8.66227 6.70711 12.6657 10.5053 14.933C11.1797 15.3377 11.8811 15.6961 12.604 16.0062C12.9553 16.1572 13.3128 16.2795 13.6587 16.43C13.8433 16.5104 14.0982 16.7301 14.0337 16.9505C14.0201 17.0439 13.8289 17.2546 13.7495 17.2816C13.2593 17.448 12.1785 16.8972 11.7456 16.7015C7.71563 14.8797 4.32013 11.47 2.26413 7.57943C1.27821 5.71374 0.45718 3.51352 0.299291 1.39584C0.282689 1.12652 0.264481 0.754308 0.338353 0.496427C0.376749 0.362964 0.462279 0.343186 0.572728 0.287443C0.604492 0.285169 0.636598 0.283824 0.668431 0.284513ZM16.1645 19.3675C13.3393 21.2181 9.78944 23.0002 8.97312 26.639C8.8975 26.9763 8.78799 27.9533 8.96628 28.2523C11.4086 27.6373 13.3062 25.8666 14.5747 23.7455C15.2731 22.5712 15.7956 21.3008 16.1255 19.9749C16.1551 19.8539 16.2586 19.4885 16.2134 19.3841L16.1645 19.3675Z" fill="white"/>
<path d="M0.668431 0.284513L0.662278 0.568778L0.662948 0.568791L0.668431 0.284513ZM2.7114 0.736662L2.78977 0.463346L2.78977 0.463345L2.7114 0.736662ZM13.7368 7.38803L13.9402 7.18936L13.9402 7.18936L13.7368 7.38803ZM17.5122 15.1253L17.7958 15.1053V15.1053L17.5122 15.1253ZM17.5268 17.0296L17.2426 17.0237L17.2299 17.6277L17.7034 17.2525L17.5268 17.0296ZM19.9634 12.8949L20.2388 12.9655L20.2388 12.9654L19.9634 12.8949ZM23.3969 7.18881L23.5582 7.42296L23.9394 7.16044L23.5329 6.93911L23.3969 7.18881ZM20.2231 6.34994L20.2902 6.62626L20.2926 6.62566L20.2231 6.34994ZM17.4516 9.2269L17.7142 9.33603L17.7142 9.33602L17.4516 9.2269ZM16.604 9.15072L16.3197 9.15542V9.15543L16.604 9.15072ZM17.5815 6.95834L17.3548 6.78678L17.3548 6.78679L17.5815 6.95834ZM22.7505 5.68881L22.6288 5.94584L22.6329 5.94768L22.7505 5.68881ZM24.4038 6.42611L24.4026 6.14179V6.14179L24.4038 6.42611ZM26.6274 6.24447L26.6 5.96146V5.96146L26.6274 6.24447ZM28.9175 6.05014L28.9419 6.33341H28.9419L28.9175 6.05014ZM28.9751 6.33139L29.0624 6.60198L29.0626 6.60191L28.9751 6.33139ZM24.354 7.8226L24.225 7.56922L24.225 7.56923L24.354 7.8226ZM20.0815 15.2503L20.3332 15.3827L20.3336 15.3819L20.0815 15.2503ZM18.3374 17.6185L18.1362 17.4175L18.1359 17.4179L18.3374 17.6185ZM17.4106 18.5052L17.2083 18.3054L17.1477 18.3668L17.1314 18.4515L17.4106 18.5052ZM16.9868 20.5179L17.2603 20.5956V20.5956L16.9868 20.5179ZM12.9458 27.2367L13.1323 27.4513L13.1362 27.4478L12.9458 27.2367ZM9.56101 29.1058L9.48665 28.8313L9.4809 28.833L9.56101 29.1058ZM8.22898 29.1527L7.98994 29.3066L7.99042 29.3074L8.22898 29.1527ZM8.45945 25.098L8.20019 24.9812L8.20018 24.9813L8.45945 25.098ZM13.8159 19.7093L13.6633 19.4694H13.6633L13.8159 19.7093ZM16.4712 17.8988L16.6745 18.0975L16.7369 18.0337L16.7516 17.9456L16.4712 17.8988ZM16.5503 16.6781L16.8343 16.6912L16.8343 16.6912L16.5503 16.6781ZM14.7153 10.183L14.9519 10.0253L14.9519 10.0253L14.7153 10.183ZM1.3237 1.43588L1.379 1.15698L1.0175 1.08531L1.0399 1.45317L1.3237 1.43588ZM2.0112 4.47494L1.74203 4.56654L1.74203 4.56654L2.0112 4.47494ZM10.5053 14.933L10.6517 14.6892L10.6511 14.6888L10.5053 14.933ZM12.604 16.0062L12.7162 15.745L12.7161 15.7449L12.604 16.0062ZM13.6587 16.43L13.7722 16.1693L13.7721 16.1693L13.6587 16.43ZM14.0337 16.9505L13.7608 16.8707L13.7551 16.8899L13.7523 16.9098L14.0337 16.9505ZM13.7495 17.2816L13.8409 17.5508L13.8409 17.5508L13.7495 17.2816ZM11.7456 16.7015L11.6285 16.9606V16.9606L11.7456 16.7015ZM2.26413 7.57943L2.01275 7.71228L2.01275 7.71228L2.26413 7.57943ZM0.299291 1.39584L0.0154752 1.41334L0.015747 1.41698L0.299291 1.39584ZM0.338353 0.496427L0.0651055 0.417816L0.0650162 0.418128L0.338353 0.496427ZM0.572728 0.287443L0.552427 0.00383797L0.495537 0.00791037L0.444619 0.0336086L0.572728 0.287443ZM16.1645 19.3675L16.2561 19.0983L16.1247 19.0537L16.0087 19.1297L16.1645 19.3675ZM8.97312 26.639L8.69568 26.5768L8.69567 26.5768L8.97312 26.639ZM8.96628 28.2523L8.72208 28.3979L8.83048 28.5797L9.03571 28.528L8.96628 28.2523ZM14.5747 23.7455L14.8187 23.8914L14.8191 23.8908L14.5747 23.7455ZM16.1255 19.9749L16.4014 20.0436L16.4016 20.0426L16.1255 19.9749ZM16.2134 19.3841L16.4742 19.2709L16.424 19.1554L16.3049 19.1149L16.2134 19.3841ZM0.668431 0.284513L0.662948 0.568791C0.846704 0.572335 1.215 0.644764 1.62059 0.742087C2.01483 0.836685 2.41125 0.946384 2.63303 1.00998L2.7114 0.736662L2.78977 0.463345C2.56362 0.398499 2.15854 0.286367 1.75327 0.189122C1.35936 0.0946018 0.930137 0.00517708 0.673914 0.000235468L0.668431 0.284513ZM2.7114 0.736662L2.63302 1.00998C6.61464 2.15173 10.6494 4.63404 13.5334 7.5867L13.7368 7.38803L13.9402 7.18936C10.9911 4.17006 6.87151 1.63381 2.78977 0.463346L2.7114 0.736662ZM13.7368 7.38803L13.5334 7.5867C15.5781 9.68013 17.0227 12.2346 17.2286 15.1454L17.5122 15.1253L17.7958 15.1053C17.5779 12.024 16.05 9.34949 13.9402 7.18936L13.7368 7.38803ZM17.5122 15.1253L17.2286 15.1454C17.2711 15.7466 17.2557 16.398 17.2426 17.0237L17.5268 17.0296L17.8111 17.0356C17.824 16.4171 17.8405 15.7377 17.7958 15.1053L17.5122 15.1253ZM17.5268 17.0296L17.7034 17.2525C18.2392 16.8279 18.7898 16.0692 19.241 15.2803C19.6948 14.4867 20.07 13.624 20.2388 12.9655L19.9634 12.8949L19.6879 12.8243C19.5357 13.418 19.1852 14.2324 18.7473 14.9979C18.3068 15.7682 17.7997 16.4507 17.3502 16.8068L17.5268 17.0296ZM19.9634 12.8949L20.2388 12.9654C20.5721 11.6643 20.8495 10.6664 21.3188 9.79702C21.7827 8.93775 22.4418 8.19199 23.5582 7.42296L23.3969 7.18881L23.2357 6.95466C22.0567 7.76679 21.3313 8.57694 20.8184 9.52686C20.311 10.4667 20.0192 11.5312 19.6879 12.8243L19.9634 12.8949ZM23.3969 7.18881L23.5329 6.93911C22.5054 6.37954 21.491 5.73741 20.1537 6.07422L20.2231 6.34994L20.2926 6.62566C21.3725 6.35367 22.1742 6.84671 23.261 7.43851L23.3969 7.18881ZM20.2231 6.34994L20.1561 6.07364C18.5594 6.46118 17.7329 7.80937 17.1891 9.11777L17.4516 9.2269L17.7142 9.33602C18.2447 8.05968 18.9752 6.94542 20.2902 6.62625L20.2231 6.34994ZM17.4516 9.2269L17.1891 9.11777C17.1829 9.13254 17.1684 9.15194 17.1327 9.16922C17.0953 9.18731 17.0449 9.19718 16.9939 9.19356C16.9417 9.18986 16.9092 9.1738 16.8959 9.16316C16.8894 9.15795 16.8885 9.15733 16.8883 9.14602L16.604 9.15072L16.3197 9.15543C16.3229 9.34718 16.4107 9.50296 16.5402 9.6068C16.6629 9.70522 16.8136 9.75086 16.9536 9.7608C17.2167 9.77946 17.5748 9.67136 17.7142 9.33603L17.4516 9.2269ZM16.604 9.15072L16.8883 9.14602C16.8834 8.85234 17.001 8.48939 17.1885 8.11374C17.3728 7.7444 17.6096 7.39246 17.8083 7.12989L17.5815 6.95834L17.3548 6.78679C17.1423 7.06757 16.8843 7.44978 16.6797 7.85978C16.4782 8.26346 16.3126 8.72502 16.3197 9.15542L16.604 9.15072ZM17.5815 6.95834L17.8083 7.1299C18.9499 5.62102 20.9208 5.13746 22.6288 5.94581L22.7505 5.68881L22.8721 5.43181C20.9204 4.50814 18.6588 5.06336 17.3548 6.78678L17.5815 6.95834ZM22.7505 5.68881L22.6329 5.94768C22.8431 6.04316 23.1144 6.20925 23.4485 6.38383C23.6054 6.46582 23.7696 6.54551 23.9261 6.60503C24.0776 6.66268 24.2461 6.71109 24.4049 6.71044L24.4038 6.42611L24.4026 6.14179C24.3492 6.142 24.2589 6.12325 24.1283 6.07354C24.0025 6.02569 23.8611 5.95781 23.7118 5.87982C23.4337 5.73447 23.0906 5.53104 22.8681 5.42994L22.7505 5.68881ZM24.4038 6.42611L24.4049 6.71044C25.0909 6.70766 25.9859 6.59219 26.6548 6.52748L26.6274 6.24447L26.6 5.96146C25.8987 6.02932 25.0536 6.13915 24.4026 6.14179L24.4038 6.42611ZM26.6274 6.24447L26.6548 6.52748C27.42 6.45346 28.174 6.39979 28.9419 6.33341L28.9175 6.05014L28.893 5.76686C28.1381 5.83211 27.3673 5.88724 26.6 5.96146L26.6274 6.24447ZM28.9175 6.05014L28.9419 6.33341C28.9732 6.33071 28.9717 6.33771 28.9514 6.32773C28.9293 6.31688 28.8807 6.28111 28.8657 6.20775C28.8506 6.13423 28.8814 6.08192 28.8978 6.06288C28.9129 6.04546 28.9174 6.05122 28.8875 6.06086L28.9751 6.33139L29.0626 6.60191C29.2307 6.54751 29.4816 6.38079 29.4228 6.09371C29.3642 5.80757 29.0692 5.75164 28.893 5.76686L28.9175 6.05014ZM28.9751 6.33139L28.8878 6.06079C28.1665 6.29352 27.3677 6.48912 26.5482 6.72153C25.7402 6.95069 24.926 7.21229 24.225 7.56922L24.354 7.8226L24.483 8.07598C25.1321 7.74547 25.9017 7.49595 26.7033 7.26862C27.4935 7.04453 28.3301 6.83824 29.0624 6.60198L28.9751 6.33139ZM24.354 7.8226L24.225 7.56923C22.4917 8.45186 21.7482 9.6808 21.2581 11.0244C21.0178 11.6833 20.833 12.3866 20.6265 13.068C20.4174 13.7578 20.1809 14.4455 19.8295 15.1188L20.0815 15.2503L20.3336 15.3819C20.7095 14.6617 20.9581 13.9344 21.1707 13.2329C21.3858 12.523 21.5591 11.8588 21.7924 11.2193C22.2495 9.966 22.9149 8.8745 24.483 8.07597L24.354 7.8226ZM20.0815 15.2503L19.8299 15.118C19.3844 15.9651 18.8129 16.7402 18.1362 17.4175L18.3374 17.6185L18.5385 17.8195C19.2553 17.102 19.861 16.2806 20.3332 15.3827L20.0815 15.2503ZM18.3374 17.6185L18.1359 17.4179C17.9892 17.5652 17.8375 17.7063 17.6806 17.8524C17.5251 17.9973 17.3648 18.1469 17.2083 18.3054L17.4106 18.5052L17.6129 18.705C17.7599 18.5562 17.9119 18.4142 18.0683 18.2685C18.2234 18.124 18.3832 17.9754 18.5388 17.8191L18.3374 17.6185ZM17.4106 18.5052L17.1314 18.4515C17.0029 19.1196 16.8901 19.8176 16.7133 20.4403L16.9868 20.5179L17.2603 20.5956C17.446 19.9415 17.5661 19.2024 17.6898 18.5589L17.4106 18.5052ZM16.9868 20.5179L16.7133 20.4402C15.9517 23.1225 14.8115 25.1711 12.7553 27.0255L12.9458 27.2367L13.1362 27.4478C15.2849 25.5099 16.4748 23.3622 17.2603 20.5956L16.9868 20.5179ZM12.9458 27.2367L12.7593 27.022C11.7935 27.8611 10.7103 28.4999 9.48666 28.8314L9.56101 29.1058L9.63536 29.3802C10.9576 29.022 12.1153 28.3349 13.1323 27.4513L12.9458 27.2367ZM9.56101 29.1058L9.4809 28.833C9.34967 28.8715 9.08405 28.9508 8.83076 28.9866C8.70295 29.0047 8.59604 29.0089 8.51971 28.9986C8.43523 28.9873 8.44763 28.9673 8.46754 28.998L8.22898 29.1527L7.99042 29.3074C8.10601 29.4856 8.30069 29.543 8.44384 29.5622C8.59514 29.5826 8.7612 29.5708 8.91042 29.5497C9.2112 29.5071 9.51591 29.4154 9.64112 29.3786L9.56101 29.1058ZM8.22898 29.1527L8.46802 28.9987C8.17975 28.5512 8.11702 27.8679 8.20224 27.1307C8.28621 26.4045 8.50692 25.6851 8.71871 25.2147L8.45945 25.098L8.20018 24.9813C7.96555 25.5024 7.72835 26.2783 7.63734 27.0654C7.54759 27.8417 7.59283 28.6901 7.98994 29.3066L8.22898 29.1527ZM8.45945 25.098L8.7187 25.2147C9.79664 22.8211 11.7632 21.3514 13.9684 19.9493L13.8159 19.7093L13.6633 19.4694C11.4476 20.8782 9.35197 22.4236 8.20019 24.9812L8.45945 25.098ZM13.8159 19.7093L13.9684 19.9493C14.1496 19.834 14.3686 19.7011 14.6082 19.5547C14.8466 19.4091 15.1037 19.2514 15.3564 19.0894C15.8552 18.7697 16.3605 18.4186 16.6745 18.0975L16.4712 17.8988L16.2679 17.7C16.0044 17.9695 15.5501 18.2898 15.0495 18.6107C14.8025 18.769 14.5501 18.9239 14.3119 19.0694C14.0749 19.2141 13.8501 19.3506 13.6633 19.4694L13.8159 19.7093ZM16.4712 17.8988L16.7516 17.9456C16.8214 17.5276 16.8169 17.0688 16.8343 16.6912L16.5503 16.6781L16.2662 16.665C16.2467 17.0899 16.2531 17.4786 16.1907 17.8519L16.4712 17.8988ZM16.5503 16.6781L16.8343 16.6912C16.9456 14.2737 16.2902 12.0337 14.9519 10.0253L14.7153 10.183L14.4787 10.3406C15.7528 12.2528 16.3718 14.3738 16.2662 16.665L16.5503 16.6781ZM14.7153 10.183L14.9519 10.0253C13.5895 7.98071 11.3776 6.00044 8.92703 4.41669C6.4759 2.83254 3.76167 1.62933 1.379 1.15698L1.3237 1.43588L1.26841 1.71478C3.56257 2.16959 6.20998 3.33776 8.61836 4.89429C11.0274 6.4512 13.1728 8.38089 14.4787 10.3406L14.7153 10.183ZM1.3237 1.43588L1.0399 1.45317C1.10135 2.46207 1.42834 3.64471 1.74203 4.56654L2.0112 4.47494L2.28038 4.38335C1.97147 3.47556 1.66427 2.35049 1.60751 1.41859L1.3237 1.43588ZM2.0112 4.47494L1.74203 4.56654C3.18904 8.81875 6.50435 12.8758 10.3596 15.1771L10.5053 14.933L10.6511 14.6888C6.90988 12.4556 3.68323 8.50578 2.28038 4.38334L2.0112 4.47494ZM10.5053 14.933L10.359 15.1767C11.0445 15.5882 11.7574 15.9524 12.4919 16.2675L12.604 16.0062L12.7161 15.7449C12.0049 15.4398 11.315 15.0873 10.6517 14.6892L10.5053 14.933ZM12.604 16.0062L12.4917 16.2674C12.673 16.3454 12.8553 16.4156 13.0308 16.4835C13.208 16.552 13.3785 16.6182 13.5452 16.6907L13.6587 16.43L13.7721 16.1693C13.593 16.0913 13.4118 16.0211 13.2359 15.9531C13.0583 15.8844 12.8862 15.818 12.7162 15.745L12.604 16.0062ZM13.6587 16.43L13.5452 16.6907C13.6021 16.7155 13.6753 16.7659 13.723 16.822C13.7746 16.8826 13.7539 16.8942 13.7608 16.8707L14.0337 16.9505L14.3066 17.0304C14.3779 16.7865 14.2621 16.578 14.1561 16.4535C14.0464 16.3246 13.8999 16.2249 13.7722 16.1693L13.6587 16.43ZM14.0337 16.9505L13.7523 16.9098C13.7542 16.8964 13.757 16.8868 13.7586 16.8817C13.7603 16.8765 13.7616 16.8736 13.7618 16.8732C13.762 16.8728 13.7601 16.877 13.7544 16.8858C13.7431 16.9037 13.7251 16.9278 13.7026 16.9534C13.6802 16.9789 13.6581 17.0007 13.641 17.0153C13.6324 17.0226 13.6276 17.0259 13.6268 17.0265C13.6238 17.0285 13.6353 17.0201 13.658 17.0124L13.7495 17.2816L13.8409 17.5508C13.9155 17.5255 13.9771 17.476 14.0101 17.4479C14.0515 17.4125 14.093 17.3707 14.13 17.3285C14.1669 17.2864 14.2042 17.2386 14.235 17.1898C14.2603 17.15 14.3027 17.0769 14.3151 16.9913L14.0337 16.9505ZM13.7495 17.2816L13.6581 17.0123C13.6032 17.031 13.5004 17.0371 13.3399 17.0087C13.186 16.9815 13.0089 16.9282 12.8239 16.8604C12.4514 16.7238 12.0911 16.5456 11.8627 16.4424L11.7456 16.7015L11.6285 16.9606C11.8331 17.0531 12.2296 17.2482 12.6282 17.3943C12.8288 17.4679 13.0409 17.5333 13.241 17.5687C13.4345 17.6029 13.6507 17.6154 13.8409 17.5508L13.7495 17.2816ZM11.7456 16.7015L11.8627 16.4424C7.89641 14.6494 4.54533 11.2875 2.51552 7.44659L2.26413 7.57943L2.01275 7.71228C4.09494 11.6524 7.53485 15.11 11.6285 16.9606L11.7456 16.7015ZM2.26413 7.57943L2.51552 7.44659C1.53985 5.60029 0.736758 3.43919 0.582834 1.3747L0.299291 1.39584L0.015747 1.41698C0.177602 3.58784 1.01657 5.82718 2.01275 7.71228L2.26413 7.57943ZM0.299291 1.39584L0.583082 1.37835C0.565704 1.09642 0.553869 0.776573 0.61169 0.574727L0.338353 0.496427L0.0650162 0.418128C-0.0249075 0.732043 -0.00032559 1.15663 0.0154987 1.41333L0.299291 1.39584ZM0.338353 0.496427L0.6116 0.575038C0.613809 0.567361 0.613842 0.570884 0.608073 0.579073C0.601978 0.587724 0.595555 0.592894 0.593909 0.594071C0.593676 0.594237 0.595152 0.593162 0.599461 0.590741C0.603907 0.588242 0.610115 0.585003 0.61955 0.580401C0.629553 0.575523 0.639486 0.570886 0.654012 0.564021C0.667521 0.557636 0.683637 0.549958 0.700838 0.541277L0.572728 0.287443L0.444619 0.0336086C0.415566 0.0482714 0.408884 0.0504571 0.370272 0.0692889C0.341827 0.0831618 0.302647 0.103253 0.263133 0.13151C0.170595 0.197683 0.101881 0.289988 0.0651057 0.417816L0.338353 0.496427ZM0.572728 0.287443L0.593029 0.571048C0.619512 0.569152 0.642207 0.568343 0.662278 0.568777L0.668431 0.284513L0.674584 0.000249177C0.63099 -0.000694424 0.589472 0.00118613 0.552427 0.00383797L0.572728 0.287443ZM16.1645 19.3675L16.0087 19.1297C14.6167 20.0415 12.9924 20.9688 11.6322 22.1152C10.2627 23.2696 9.12235 24.6749 8.69568 26.5768L8.97312 26.639L9.25055 26.7012C9.64021 24.9643 10.683 23.6591 11.9987 22.5501C13.3239 21.4331 14.8871 20.5441 16.3203 19.6054L16.1645 19.3675ZM8.97312 26.639L8.69567 26.5768C8.65364 26.7643 8.6056 27.1097 8.59044 27.4473C8.58283 27.6168 8.58311 27.7921 8.59853 27.9493C8.61297 28.0965 8.64378 28.2666 8.72208 28.3979L8.96628 28.2523L9.21048 28.1066C9.19964 28.0885 9.17728 28.0243 9.16447 27.8938C9.15264 27.7731 9.1516 27.627 9.15853 27.4728C9.17245 27.1627 9.21698 26.851 9.25056 26.7012L8.97312 26.639ZM8.96628 28.2523L9.03571 28.528C11.5723 27.8892 13.5244 26.0556 14.8187 23.8914L14.5747 23.7455L14.3307 23.5995C13.088 25.6775 11.2449 27.3853 8.89685 27.9766L8.96628 28.2523ZM14.5747 23.7455L14.8191 23.8908C15.5317 22.6926 16.0648 21.3965 16.4014 20.0436L16.1255 19.9749L15.8495 19.9063C15.5264 21.2052 15.0146 22.4497 14.3303 23.6001L14.5747 23.7455ZM16.1255 19.9749L16.4016 20.0426C16.4138 19.9928 16.4508 19.8565 16.4763 19.7291C16.4893 19.6644 16.5014 19.5922 16.5064 19.5246C16.5103 19.4724 16.5159 19.367 16.4742 19.2709L16.2134 19.3841L15.9525 19.4973C15.9401 19.4687 15.9398 19.4499 15.9402 19.4548C15.9403 19.4567 15.9406 19.4653 15.9394 19.4822C15.9368 19.5163 15.9297 19.5626 15.9187 19.6175C15.8964 19.7292 15.8667 19.8361 15.8493 19.9073L16.1255 19.9749ZM16.2134 19.3841L16.3049 19.1149L16.2561 19.0983L16.1645 19.3675L16.073 19.6367L16.1218 19.6533L16.2134 19.3841Z" fill="white" mask="url(#path-1-outside-1_5535_6104)"/>
</svg>
